{"title":"American Reunion 2012 New SourceTS XviD [avrumi]","uid":7265841,"size":3199278572,"categoryP":"video","categoryS":"movies","magnet":"?xt=urn:btih:2b8a6bf6ea505a8e470e9a55e9b1569800d22d2f&amp;dn=American+Reunion+2012+New+SourceTS+XviD+%5Bavrumi%5D&amp;tr=udp%3A%2F%2Ftracker.openbittorrent.com%3A80&amp;tr=udp%3A%2F%2Fopen.demonii.com%3A1337&amp;tr=udp%3A%2F%2Ftracker.coppersurfer.tk%3A6969&amp;tr=udp%3A%2F%2Fexodus.desync.com%3A6969","seeders":0,"leechers":1,"uploader":"avrumi","files":-1,"time":1336885527,"description":"post img: http://lookpic.com/O/i2/990/vTprsVFk.jpeg\n\nAmerican Reunion 2012 New SourceTS XviD\n\n\n[plot]\n\nThirteen years after graduating high school, Jim Levenstein (Jason Biggs), Chris &quot;Oz&quot; Ostreicher (Chris Klein), Kevin Myers (Thomas Ian Nicholas), Paul Finch (Eddie Kaye Thomas), and Steve Stifler (Seann William Scott) have moved on with adult life and responsibilities. Jim is married to Michelle (Alyson Hannigan) and they have a two-year-old son. Oz is an NFL sportscaster living in Los Angeles with his supermodel girlfriend Mia (Katrina Bowden). Kevin is married to Ellie and works from home as an architect. Finch has supposedly gone missing, and Stifler works as a temp at an investment firm.\n\n\n\nVideo Codec: XviD\nVideo Bitrate: 3 978 Kbps\nAudio Codec: AC-3\nAudio Bitrate: 192 Kbps\nResolution: 684 x 336\nRuntime: 1h 44mn 26sec\nRelease Date: N/A\nTheatre Date: 6 April 2012 (USA)\nLanguage: English\nSubtitles: yes\nIMDB Rating: 7.6/10\nIMDb URL: http://www.imdb.com/title/tt1605630/\n\nGeneral\nFormat: AVI\nFormat/Info: Audio Video Interleave\nFile size: 2.90 GiB\nDuration: 1h 44mn\nOverall bit rate: 3 978 Kbps\n\nVideo\nFormat: MPEG-4 Visual\nCodec ID: XVID\nDuration: 1h 44mn\nBit rate: 3 773 Kbps\nWidth: 684 pixels\nHeight: 336 pixels\nDisplay aspect ratio: 2.036\nFrame rate: 29.970 fps\nColor space: YUV\nChroma subsampling: 4:2:0\nBit depth: 8 bits\nStream size: 2.75 GiB (95%)\nWriting library: XviD 64\n\n\nAudio\nID: 1\nFormat: AC-3\nFormat/Info: Audio Coding 3\nCodec ID: 2000\nDuration: 1h 44mn\nBit rate: 192 Kbps\nChannel(s): 2 channels\nSampling rate: 48.0 KHz\nBit depth: 16 bits\nStream size: 143 MiB (5%)\nInterleave, duration: 33 ms (1.00 video frame)\nInterleave, preload duration: 500 ms\n\n\n[cast]\n\nJason Biggs ... Jim Levenstein\nAlyson Hannigan ... Michelle\nChris Klein ... Oz\nThomas Ian Nicholas ... Kevin\nTara Reid ... Vicky\nSeann William Scott ... Steve Stifler\nMena Suvari ... Heather\nEddie Kaye Thomas ... Finch\nJohn Cho ... MILF Guy\nJennifer Coolidge ... Stifler's Mom\n\n\n\nplz comment, You will make me happy :)\n\nEnjoy :) \t","torrent":{"xt":"urn:btih:2b8a6bf6ea505a8e470e9a55e9b1569800d22d2f","amp;dn":"American+Reunion+2012+New+SourceTS+XviD+%5Bavrumi%5D","amp;tr":["udp%3A%2F%2Ftracker.openbittorrent.com%3A80","udp%3A%2F%2Fopen.demonii.com%3A1337","udp%3A%2F%2Ftracker.coppersurfer.tk%3A6969","udp%3A%2F%2Fexodus.desync.com%3A6969"],"infoHash":"2b8a6bf6ea505a8e470e9a55e9b1569800d22d2f","infoHashBuffer":{"type":"Buffer","data":[43,138,107,246,234,80,90,142,71,14,154,85,233,177,86,152,0,210,45,47]},"announce":[],"urlList":[]}}